<svg width="1243" height="96" viewBox="0 0 1243 96" fill="none" xmlns="http://www.w3.org/2000/svg">
<path d="M30.0742 3.26953C60.5781 3.1582 79.2256 20.1914 79.2256 48.2461C79.2256 76.0781 60.5781 93 30.0742 93H0.794922V3.3252L30.0742 3.26953ZM29.6846 70.5674C45.6045 70.5674 55.3457 62.1064 55.3457 48.1904C55.3457 34.1074 45.5488 25.5352 29.4619 25.5352H24.0068V70.5674H29.6846ZM90.9707 93V3.26953H114.795V93H90.9707ZM221.893 41.4551C222.338 44.4609 222.616 47.3555 222.616 50.1943C222.616 77.4697 202.021 95.1152 176.526 95.1152C148.026 95.1152 126.484 73.8516 126.484 48.2461C126.484 22.6406 148.082 1.09863 175.914 1.09863C187.325 1.26562 200.518 6.1084 207.921 12.9551L194.729 31.0459C189.719 26.3701 182.538 23.3643 175.914 23.3643C162.555 23.3643 150.81 34.3301 150.81 48.1904C150.81 60.7705 160.885 73.0166 177.473 73.0166C188.327 73.0166 196.064 67.7842 196.398 59.2119H175.858V41.4551H221.893ZM234.361 93V3.26953H258.186V93H234.361ZM335.225 3.26953V25.5352H313.738V93H289.858V25.5352H268.316V3.26953H335.225ZM396.232 93L391.724 82.5352H358.214L353.649 93H327.599L369.291 2.15625H380.591L422.339 93H396.232ZM365.729 65.1123H384.153L374.969 43.8486L365.729 65.1123ZM455.125 70.623H489.47V93H431.301V3.26953H455.125V70.623ZM562.501 94.2246C547.75 94.2246 534.335 87.7119 529.826 77.8037L544.243 63.665C547.973 69.1758 554.931 72.5156 562.445 72.5156C567.511 72.5156 572.465 70.6787 572.465 67.0049C572.465 62.3848 563.28 58.3213 554.485 54.4248C543.13 49.5264 533.389 42.0674 533.389 28.541C533.389 13.0107 548.14 1.93359 565.173 1.93359C578.866 1.93359 589.554 8.39062 593.061 17.2412L579.312 30.4893C576.64 25.7578 569.737 23.6982 565.451 23.6982C560.553 23.6982 557.046 26.2031 557.046 29.2646C557.046 33.3838 563.392 34.7197 573.077 38.7832C587.104 44.6836 596.4 53.2559 596.4 66.5039C596.4 83.5928 580.48 94.2246 562.501 94.2246ZM652.621 95.2822C624.733 95.2822 603.414 74.9648 603.414 48.2461C603.414 21.3047 624.789 0.875977 652.677 0.875977C680.564 0.875977 701.939 21.3047 701.939 48.2461C701.939 74.9648 680.564 95.2822 652.621 95.2822ZM652.677 72.5156C666.927 72.5156 677.837 61.8838 677.837 48.0791C677.837 34.2188 666.927 23.5312 652.677 23.5312C638.427 23.5312 627.517 34.2188 627.517 48.0791C627.517 61.8838 638.427 72.5156 652.677 72.5156ZM737.453 70.623H771.798V93H713.629V3.26953H737.453V70.623ZM818.444 95.5049C797.904 95.5049 781.205 80.9766 781.205 60.3809V3.26953H805.196V60.3252C805.196 67.7842 811.598 72.7383 818.389 72.7383C825.124 72.7383 831.692 67.6729 831.692 60.3252V3.26953H855.684V60.3809C855.684 80.9766 838.984 95.5049 818.444 95.5049ZM931.943 3.26953V25.5352H910.457V93H886.577V25.5352H865.035V3.26953H931.943ZM942.074 93V3.26953H965.898V93H942.074ZM1026.79 95.2822C998.907 95.2822 977.588 74.9648 977.588 48.2461C977.588 21.3047 998.963 0.875977 1026.85 0.875977C1054.74 0.875977 1076.11 21.3047 1076.11 48.2461C1076.11 74.9648 1054.74 95.2822 1026.79 95.2822ZM1026.85 72.5156C1041.1 72.5156 1052.01 61.8838 1052.01 48.0791C1052.01 34.2188 1041.1 23.5312 1026.85 23.5312C1012.6 23.5312 1001.69 34.2188 1001.69 48.0791C1001.69 61.8838 1012.6 72.5156 1026.85 72.5156ZM1141.46 3.1582H1165.34V93.8906H1157.77L1111.63 49.1924V93.0557H1087.8V2.37891H1095.48L1141.46 46.9102V3.1582ZM1208.98 94.2246C1194.23 94.2246 1180.82 87.7119 1176.31 77.8037L1190.73 63.665C1194.46 69.1758 1201.41 72.5156 1208.93 72.5156C1213.99 72.5156 1218.95 70.6787 1218.95 67.0049C1218.95 62.3848 1209.76 58.3213 1200.97 54.4248C1189.61 49.5264 1179.87 42.0674 1179.87 28.541C1179.87 13.0107 1194.62 1.93359 1211.66 1.93359C1225.35 1.93359 1236.04 8.39062 1239.54 17.2412L1225.79 30.4893C1223.12 25.7578 1216.22 23.6982 1211.93 23.6982C1207.04 23.6982 1203.53 26.2031 1203.53 29.2646C1203.53 33.3838 1209.87 34.7197 1219.56 38.7832C1233.59 44.6836 1242.88 53.2559 1242.88 66.5039C1242.88 83.5928 1226.96 94.2246 1208.98 94.2246Z" fill="white"/>
</svg>
