<svg width="169" height="54" viewBox="0 0 169 54" fill="none" xmlns="http://www.w3.org/2000/svg">
<path d="M162.928 38.8223H163.072V42H162.578V39.457L162.152 39.584V39.0684L162.928 38.8223ZM165.941 40.832V41.3242H165.596V42H165.104V41.3242H163.42L164.584 38.8418L165.107 38.8438L164.162 40.832H165.104V39.8203H165.596V40.832H165.941Z" fill="white"/>
<circle cx="164" cy="40" r="4.7" stroke="white" stroke-width="0.6"/>
<path d="M24.4922 12.5156H29.7852L15.2539 44.6445H14.9219L0.449219 12.5156H5.70312L15.0781 33.8242L24.4922 12.5156ZM33.3008 44V12.5156H38.2422V44H33.3008ZM66.9141 44H60.8789L49.2383 28.7656V44H44.3164V12.5156H49.2383V27.5938L60.0586 12.5156H65.8008L54.6289 27.9648L66.9141 44ZM92.2266 44L90.0781 39.2148H75.1758L73.0273 44H67.6758L82.4805 11.8711H82.7734L97.5781 44H92.2266ZM77.0898 34.9766H88.1641L82.6367 22.6719L77.0898 34.9766ZM124.453 44H118.379L109.902 31.8125H106.035V44H101.094L101.074 12.5156H110.859C116.719 12.5156 121.523 17.0273 121.523 22.6328C121.523 26.6953 118.906 30.2305 115.293 31.4023L124.453 44ZM106.016 27.7109H110.977C113.945 27.7305 116.426 25.3281 116.426 22.5156C116.426 19.5859 113.906 17.418 110.977 17.418H106.016V27.7109ZM142.539 44.5078C133.594 44.5078 126.289 37.2031 126.289 28.2969C126.289 19.3125 133.594 11.9688 142.559 11.9688C151.504 11.9688 158.848 19.3125 158.848 28.2969C158.848 37.2031 151.504 44.5078 142.539 44.5078ZM142.539 39.5078C148.75 39.5078 153.848 34.4492 153.848 28.2578C153.848 22.0273 148.75 16.9492 142.539 16.9492C136.328 16.9492 131.27 22.0273 131.27 28.2578C131.27 34.4492 136.328 39.5078 142.539 39.5078Z" fill="white"/>
</svg>
